<?xml version="1.0" encoding="UTF-8" standalone="no" ?>
<!DOCTYPE svg PUBLIC "-//W3C//DTD SVG 1.1//EN" "http://www.w3.org/Graphics/SVG/1.1/DTD/svg11.dtd">
<svg xmlns="http://www.w3.org/2000/svg" xmlns:xlink="http://www.w3.org/1999/xlink" version="1.1" width="1080" height="1080" viewBox="0 0 1080 1080" xml:space="preserve">
<desc>Created with Fabric.js 5.2.4</desc>
<defs>
</defs>
<g transform="matrix(1 0 0 1 540 540)" id="8f603687-5df6-4b8e-a545-c52a82ae6cb0"  >
<rect style="stroke: none; stroke-width: 1; stroke-dasharray: none; stroke-linecap: butt; stroke-dashoffset: 0; stroke-linejoin: miter; stroke-miterlimit: 4; fill: rgb(255,255,255); fill-rule: nonzero; opacity: 1; visibility: hidden;" vector-effect="non-scaling-stroke"  x="-540" y="-540" rx="0" ry="0" width="1080" height="1080" />
</g>
<g transform="matrix(1 0 0 1 540 540)" id="98d29397-ba0d-4df3-9fd5-5d0da8708a03"  >
</g>
<g transform="matrix(5.75 0 0 5.73 501.57 522.9)" id="d0005f6b-6590-402b-b696-20b6b5135526"  >
<circle style="stroke: rgb(0,0,0); stroke-width: 0; stroke-dasharray: none; stroke-linecap: butt; stroke-dashoffset: 0; stroke-linejoin: miter; stroke-miterlimit: 4; fill: rgb(255,255,255); fill-rule: nonzero; opacity: 1;" vector-effect="non-scaling-stroke"  cx="0" cy="0" r="35" />
</g>
<g transform="matrix(1 0 0 1 504.88 505.26)"  >
<path style="stroke: rgb(0,0,0); stroke-width: 0; stroke-dasharray: none; stroke-linecap: butt; stroke-dashoffset: 0; stroke-linejoin: miter; stroke-miterlimit: 4; fill: rgb(144,8,227); fill-opacity: 0.95; fill-rule: nonzero; opacity: 1;" vector-effect="non-scaling-stroke"  transform=" translate(-219.27, -219.27)" d="M 409.132 114.573 C 389.524 80.977 362.927 54.37899999999999 329.334 34.772999999999996 C 295.736 15.166 259.057 5.365 219.271 5.365 C 179.48999999999998 5.365 142.79899999999998 15.169 109.20799999999998 34.773 C 75.612 54.378 49.015999999999984 80.977 29.407999999999987 114.57300000000001 C 9.803 148.168 0 184.854 0 224.63 C 0 272.40999999999997 13.94 315.375 41.827 353.536 C 69.711 391.7 105.733 418.108 149.89 432.76300000000003 C 155.02999999999997 433.71700000000004 158.83499999999998 433.04600000000005 161.309 430.76700000000005 C 163.784 428.48500000000007 165.02 425.62700000000007 165.02 422.20500000000004 C 165.02 421.634 164.971 416.497 164.876 406.78800000000007 C 164.778 397.07900000000006 164.732 388.6090000000001 164.732 381.38200000000006 L 158.165 382.5180000000001 C 153.97799999999998 383.2850000000001 148.696 383.61000000000007 142.319 383.5180000000001 C 135.945 383.4290000000001 129.32799999999997 382.7610000000001 122.47699999999999 381.51900000000006 C 115.62299999999999 380.28800000000007 109.24799999999999 377.43300000000005 103.347 372.96000000000004 C 97.449 368.487 93.262 362.63200000000006 90.78699999999999 355.40400000000005 L 87.93199999999999 348.83400000000006 C 86.02899999999998 344.46000000000004 83.03299999999999 339.60100000000006 78.93999999999998 334.27500000000003 C 74.84699999999998 328.944 70.70799999999998 325.33000000000004 66.52099999999999 323.427 L 64.52199999999999 321.99600000000004 C 63.18999999999999 321.045 61.95399999999999 319.898 60.81099999999999 318.56700000000006 C 59.66899999999999 317.23600000000005 58.81399999999999 315.90400000000005 58.242999999999995 314.57000000000005 C 57.67099999999999 313.23500000000007 58.144999999999996 312.14000000000004 59.669999999999995 311.28100000000006 C 61.19499999999999 310.4220000000001 63.95099999999999 310.00500000000005 67.94999999999999 310.00500000000005 L 73.65799999999999 310.85800000000006 C 77.46499999999999 311.62100000000004 82.17399999999999 313.90000000000003 87.79099999999998 317.70900000000006 C 93.40499999999999 321.51500000000004 98.01999999999998 326.4630000000001 101.63699999999999 332.55100000000004 C 106.01699999999998 340.357 111.29399999999998 346.30500000000006 117.48299999999999 350.398 C 123.66699999999999 354.49100000000004 129.902 356.53400000000005 136.182 356.53400000000005 C 142.462 356.53400000000005 147.886 356.05800000000005 152.456 355.11100000000005 C 157.021 354.15900000000005 161.304 352.72800000000007 165.303 350.826 C 167.016 338.06800000000004 171.68 328.267 179.291 321.416 C 168.44299999999998 320.276 158.69 318.55899999999997 150.027 316.276 C 141.369 313.99 132.422 310.28000000000003 123.19199999999998 305.136 C 113.95699999999998 299.999 106.29599999999998 293.62 100.20699999999998 286.01000000000005 C 94.11699999999998 278.3960000000001 89.11899999999999 268.40000000000003 85.21999999999998 256.03100000000006 C 81.31899999999999 243.65700000000007 79.36799999999998 229.38300000000007 79.36799999999998 213.20500000000007 C 79.36799999999998 190.17000000000007 86.88799999999998 170.56800000000007 101.92499999999998 154.38800000000006 C 94.88099999999999 137.07000000000005 95.54599999999998 117.65600000000006 103.92199999999998 96.14800000000005 C 109.44199999999998 94.43300000000005 117.62799999999999 95.72000000000006 128.47599999999997 100.00100000000005 C 139.32599999999996 104.28400000000005 147.26999999999998 107.95300000000005 152.31599999999997 110.99500000000005 C 157.36199999999997 114.03600000000004 161.40499999999997 116.61300000000004 164.45099999999996 118.70300000000005 C 182.15599999999995 113.75600000000004 200.42699999999996 111.28200000000004 219.26899999999995 111.28200000000004 C 238.11099999999993 111.28200000000004 256.38599999999997 113.75600000000004 274.0919999999999 118.70300000000005 L 284.9409999999999 111.85400000000004 C 292.3599999999999 107.28400000000005 301.1209999999999 103.09600000000005 311.2029999999999 99.28900000000004 C 321.29099999999994 95.48400000000004 329.00499999999994 94.43600000000005 334.33699999999993 96.15100000000004 C 342.89899999999994 117.66000000000004 343.6619999999999 137.07300000000004 336.61599999999993 154.39100000000005 C 351.65199999999993 170.57100000000005 359.17499999999995 190.17800000000005 359.17499999999995 213.20800000000006 C 359.17499999999995 229.38600000000005 357.2169999999999 243.70500000000004 353.32199999999995 256.17400000000004 C 349.42199999999997 268.64500000000004 344.381 278.63100000000003 338.19699999999995 286.153 C 332.006 293.67400000000004 324.29599999999994 300.00300000000004 315.0659999999999 305.139 C 305.83399999999995 310.279 296.8839999999999 313.98900000000003 288.22599999999994 316.27500000000003 C 279.56399999999996 318.56100000000004 269.8109999999999 320.27900000000005 258.96299999999997 321.42100000000005 C 268.85699999999997 329.98300000000006 273.80499999999995 343.49800000000005 273.80499999999995 361.96000000000004 L 273.80499999999995 422.19700000000006 C 273.80499999999995 425.6190000000001 274.99499999999995 428.47600000000006 277.37699999999995 430.75900000000007 C 279.756 433.03800000000007 283.513 433.70900000000006 288.65299999999996 432.7540000000001 C 332.816 418.10100000000006 368.83799999999997 391.69200000000006 396.72099999999995 353.5280000000001 C 424.60099999999994 315.3670000000001 438.54599999999994 272.40200000000004 438.54599999999994 224.62200000000007 C 438.536 184.851 428.728 148.168 409.132 114.573 z" stroke-linecap="round" />
</g>
</svg>